HIERARCHY
ROOT Root
{
	OFFSET 0.00 0.00 0.00
	CHANNELS 6 Xposition Yposition Zposition Xrotation Yrotation Zrotation
	JOINT L_Femur
	{
		OFFSET 3.76246 0.00000 0.00000
		CHANNELS 3 Xrotation Yrotation Zrotation
		JOINT L_Tibia
		{
			OFFSET 0.00000 -18.62495 0.00000
			CHANNELS 3 Xrotation Yrotation Zrotation
			JOINT L_Foot
			{
				OFFSET 0.00000 -17.24559 0.00000
				CHANNELS 3 Xrotation Yrotation Zrotation
				JOINT L_Toe
				{
					OFFSET 0.00000 -1.22276 4.56342
					CHANNELS 3 Xrotation Yrotation Zrotation
					End Site
					{
						OFFSET 0.00000 0.00000 2.95275
					}
				}
			}
		}
	}
	JOINT R_Femur
	{
		OFFSET -3.76246 0.00000 0.00000
		CHANNELS 3 Xrotation Yrotation Zrotation
		JOINT R_Tibia
		{
			OFFSET 0.00000 -18.62495 0.00000
			CHANNELS 3 Xrotation Yrotation Zrotation
			JOINT R_Foot
			{
				OFFSET 0.00000 -17.24559 0.00000
				CHANNELS 3 Xrotation Yrotation Zrotation
				JOINT R_Toe
				{
					OFFSET 0.00000 -1.22276 4.56342
					CHANNELS 3 Xrotation Yrotation Zrotation
					End Site
					{
						OFFSET 0.00000 0.00000 2.95275
					}
				}
			}
		}
	}
	JOINT LowerBack
	{
		OFFSET 0.00000 0.03937 0.00000
		CHANNELS 3 Xrotation Yrotation Zrotation
		JOINT Thorax
		{
			OFFSET 0.00000 7.43271 0.00000
			CHANNELS 3 Xrotation Yrotation Zrotation
			JOINT Neck
			{
				OFFSET 0.00000 7.43271 0.00000
				CHANNELS 3 Xrotation Yrotation Zrotation
				JOINT head
				{
					OFFSET 0.00000 6.36685 0.00000
					CHANNELS 3 Xrotation Yrotation Zrotation
					End Site
					{
						OFFSET 0.00000 4.52755 0.00000
					}
				}
			}
			JOINT L_Collar
			{
				OFFSET 0.00000 7.43271 0.00000
				CHANNELS 3 Xrotation Yrotation Zrotation
				JOINT L_Humerus
				{
					OFFSET 6.65860 -0.00002 0.00000
					CHANNELS 3 Xrotation Yrotation Zrotation
					JOINT L_Elbow
					{
						OFFSET 11.77659 -0.00004 0.00000
						CHANNELS 3 Xrotation Yrotation Zrotation
						JOINT L_Wrist
						{
							OFFSET 9.87228 -0.00004 0.00000
							CHANNELS 3 Xrotation Yrotation Zrotation
							End Site
							{
								OFFSET 3.93700 -0.00001 0.00000
							}
						}
					}
				}
			}
			JOINT R_Collar
			{
				OFFSET 0.00000 7.43271 0.00000
				CHANNELS 3 Xrotation Yrotation Zrotation
				JOINT R_Humerus
				{
					OFFSET -6.65860 -0.00002 0.00000
					CHANNELS 3 Xrotation Yrotation Zrotation
					JOINT R_Elbow
					{
						OFFSET -11.77659 -0.00004 0.00000
						CHANNELS 3 Xrotation Yrotation Zrotation
						JOINT R_Wrist
						{
							OFFSET -9.87228 -0.00004 0.00000
							CHANNELS 3 Xrotation Yrotation Zrotation
							End Site
							{
								OFFSET -5.41338 -0.00002 0.00000
							}
						}
					}
				}
			}
		}
	}
}
MOTION
Frames: 20
Frame Time: 0.008333
 -13.4487 37.5672 -22.1611 18.1006 0.3922 -0.2445 -19.4447 5.2153 2.7395 14.2829 0.0000 -0.0000 -13.4135 -6.8372 3.2006 -1.7469 -0.0000 -0.0000 -20.9210 -7.6281 -5.4247 14.4973 -0.0000 -0.0000 -15.0334 2.5340 8.4694 1.0672 0.0000 0.0000 -15.2075 -2.7714 -6.0533 -3.0508 1.7219 5.9363 3.6868 -0.2090 -1.5678 -18.5909 0.2806 7.8131 11.8067 7.8881 10.0434 -23.4325 -44.0139 -91.9877 -0.0001 -15.7423 -0.0000 39.7386 7.2424 -22.5836 8.1423 -4.4890 -13.2828 -13.9104 38.8430 88.7403 -0.0001 16.4906 0.0000 57.9784 -14.0181 20.7207
 -13.4511 37.5668 -22.1597 18.1045 0.3925 -0.2444 -19.4426 5.2165 2.7430 14.2742 -0.0000 -0.0000 -13.4018 -6.8394 3.2084 -1.7759 0.0000 0.0000 -20.9204 -7.6378 -5.4215 14.4945 -0.0000 -0.0000 -15.0393 2.5415 8.4804 1.0685 0.0000 0.0000 -15.2063 -2.7681 -6.0535 -3.0553 1.7164 5.9385 3.6833 -0.2132 -1.5683 -18.5978 0.2908 7.8250 11.7992 7.8862 10.0438 -23.4287 -44.0199 -91.9918 -0.0001 -15.7424 -0.0000 39.7577 7.2764 -22.5753 8.1452 -4.4928 -13.2837 -13.9200 38.8403 88.7382 -0.0001 16.4778 0.0000 58.0181 -14.0306 20.7035
 -13.4542 37.5664 -22.1585 18.1089 0.3950 -0.2532 -19.4435 5.2138 2.7562 14.2681 -0.0000 0.0000 -13.4013 -6.8486 3.2253 -1.8054 -0.0000 -0.0000 -20.9167 -7.6431 -5.4071 14.4869 0.0000 -0.0000 -15.0410 2.5329 8.4743 1.0595 0.0000 0.0000 -15.2072 -2.7783 -6.0557 -3.0700 1.7134 5.9526 3.7081 -0.1985 -1.5608 -18.6215 0.2830 7.8142 11.8302 7.8941 10.0387 -23.4560 -44.0090 -91.9924 -0.0001 -15.7452 -0.0000 39.5380 7.4717 -22.5397 8.1669 -4.4680 -13.2951 -13.9281 38.7918 88.7421 -0.0001 16.4700 0.0000 58.0889 -14.0149 20.7069
 -13.4575 37.5667 -22.1572 18.1135 0.3964 -0.2567 -19.4474 5.2212 2.7649 14.2677 -0.0000 -0.0000 -13.4052 -6.8554 3.1999 -1.7799 -0.0000 0.0000 -20.9201 -7.6540 -5.3998 14.4907 0.0000 0.0000 -15.0465 2.5392 8.4534 1.0520 0.0000 0.0000 -15.2043 -2.7724 -6.0467 -3.0722 1.7176 5.9403 3.7019 -0.2075 -1.5651 -18.6367 0.2712 7.8367 11.7870 7.8845 10.0460 -23.4195 -44.0195 -91.9931 -0.0001 -15.7547 -0.0000 39.5260 7.3340 -22.5539 8.1547 -4.4852 -13.2853 -13.9234 38.8062 88.7387 -0.0001 16.4698 0.0000 58.0475 -14.0187 20.6970
 -13.4603 37.5672 -22.1559 18.1214 0.4064 -0.2559 -19.4553 5.2265 2.7656 14.2691 0.0000 -0.0000 -13.4083 -6.8644 3.1959 -1.7747 0.0000 -0.0000 -20.9249 -7.6590 -5.3995 14.4918 -0.0000 -0.0000 -15.0450 2.5402 8.4256 0.9957 0.0000 -0.0000 -15.2008 -2.7827 -6.0517 -3.0898 1.7282 5.9413 3.6883 -0.2298 -1.5612 -18.6128 0.2828 7.8516 11.8274 7.8833 10.0568 -23.4739 -44.0288 -92.0216 -0.0001 -15.7432 -0.0000 40.2049 6.9761 -22.6992 8.1540 -4.4908 -13.2844 -13.9172 38.8114 88.7352 -0.0001 16.4669 0.0000 58.1690 -13.9643 20.7248
 -13.4636 37.5668 -22.1544 18.1301 0.4076 -0.2583 -19.4604 5.2292 2.7724 14.2628 0.0000 -0.0000 -13.4102 -6.8633 3.2014 -1.7739 -0.0000 -0.0000 -20.9307 -7.6682 -5.3932 14.4919 -0.0000 0.0000 -15.0544 2.5476 8.4106 1.0051 0.0000 0.0000 -15.2083 -2.7812 -6.0515 -3.0851 1.7200 5.9388 3.6763 -0.2149 -1.5598 -18.6104 0.2602 7.8611 11.8196 7.8884 10.0614 -23.4696 -44.0360 -92.0114 -0.0001 -15.7655 -0.0000 39.6505 7.2052 -22.5925 8.1492 -4.4795 -13.2825 -13.9088 38.8060 88.7317 -0.0001 16.4699 0.0000 58.4040 -13.8653 20.7504
 -13.4667 37.5667 -22.1521 18.1357 0.4058 -0.2647 -19.4643 5.2329 2.7856 14.2632 -0.0000 0.0000 -13.4044 -6.8699 3.1931 -1.7802 -0.0000 0.0000 -20.9324 -7.6679 -5.3803 14.4912 0.0000 0.0000 -15.0430 2.5432 8.4198 0.9928 0.0000 -0.0000 -15.2103 -2.7862 -6.0491 -3.0901 1.7305 5.9426 3.6851 -0.2212 -1.5439 -18.6299 0.2650 7.8454 11.8183 7.8834 10.0601 -23.4721 -44.0633 -92.0203 -0.0001 -15.7339 -0.0000 40.0142 7.0752 -22.5840 8.1444 -4.4864 -13.2937 -13.9114 38.8066 88.7493 -0.0001 16.4352 0.0000 60.2982 -13.1040 21.1487
 -13.4697 37.5668 -22.1503 18.1390 0.4071 -0.2673 -19.4654 5.2331 2.7928 14.2619 0.0000 -0.0000 -13.4024 -6.8731 3.1803 -1.7805 -0.0000 -0.0000 -20.9353 -7.6710 -5.3750 14.4999 -0.0000 -0.0000 -15.0459 2.5401 8.4375 1.0216 0.0000 0.0000 -15.2070 -2.7826 -6.0495 -3.0987 1.7254 5.9456 3.6891 -0.2231 -1.5319 -18.6385 0.2618 7.8258 11.8292 7.8847 10.0576 -23.4819 -44.0543 -91.9995 -0.0001 -15.7653 -0.0000 38.6595 7.6077 -22.3114 8.1549 -4.4871 -13.2859 -13.9209 38.8052 88.7322 -0.0001 16.4637 0.0000 58.3641 -13.8684 20.7791
 -13.4724 37.5684 -22.1488 18.1446 0.4144 -0.2674 -19.4670 5.2236 2.7934 14.2572 -0.0000 0.0000 -13.3901 -6.8655 3.1733 -1.7824 -0.0000 0.0000 -20.9408 -7.6766 -5.3740 14.5061 0.0000 -0.0000 -15.0487 2.5406 8.4169 1.0288 -0.0000 0.0000 -15.2028 -2.7923 -6.0465 -3.1018 1.7259 5.9429 3.6937 -0.2121 -1.5661 -18.6848 0.2598 7.9049 11.7962 7.8899 10.0515 -23.4533 -44.0800 -91.9966 -0.0001 -15.7467 -0.0000 39.2617 7.4002 -22.4278 8.1460 -4.4818 -13.2850 -13.9126 38.8040 88.7256 -0.0001 16.4668 0.0000 58.3110 -13.9112 20.7583
 -13.4742 37.5691 -22.1468 18.1552 0.4151 -0.2632 -19.4722 5.2300 2.7921 14.2500 -0.0000 0.0000 -13.3847 -6.8693 3.1772 -1.7761 0.0000 0.0000 -20.9520 -7.6693 -5.3753 14.5127 -0.0000 0.0000 -15.0463 2.5384 8.4216 1.0400 -0.0000 0.0000 -15.2121 -2.7770 -6.0392 -3.0962 1.7202 5.9237 3.6882 -0.2054 -1.5684 -18.6740 0.2137 7.8993 11.8043 7.8797 10.0624 -23.4688 -44.0162 -91.9997 -0.0001 -15.7602 -0.0000 39.4667 7.3542 -22.5414 8.1427 -4.4881 -13.2690 -13.9096 38.8187 88.7125 -0.0001 16.4643 0.0000 58.4303 -13.8574 20.7954
 -13.4769 37.5686 -22.1456 18.1573 0.4124 -0.2604 -19.4703 5.2275 2.7943 14.2482 0.0000 0.0000 -13.3780 -6.8629 3.1814 -1.8021 -0.0000 -0.0000 -20.9541 -7.6571 -5.3742 14.5190 -0.0000 0.0000 -15.0501 2.5347 8.4592 1.0644 0.0000 -0.0000 -15.2111 -2.7696 -6.0377 -3.0997 1.7127 5.9216 3.7063 -0.2076 -1.5591 -18.7022 0.2041 7.8844 11.8050 7.8731 10.0613 -23.4625 -44.0083 -91.9912 -0.0001 -15.7649 -0.0000 39.4815 7.3180 -22.5513 8.1546 -4.4785 -13.2724 -13.9173 38.8012 88.7097 -0.0001 16.4629 0.0000 58.2897 -13.9197 20.7502
 -13.4803 37.5679 -22.1440 18.1620 0.4191 -0.2623 -19.4756 5.2251 2.7999 14.2501 -0.0000 -0.0000 -13.3827 -6.8708 3.1918 -1.7911 -0.0000 -0.0000 -20.9575 -7.6513 -5.3683 14.5266 0.0000 -0.0000 -15.0608 2.5258 8.4387 1.0522 0.0000 -0.0000 -15.2041 -2.7738 -6.0453 -3.1116 1.7110 5.9311 3.6959 -0.1962 -1.5506 -18.6833 0.1914 7.8592 11.8104 7.8771 10.0560 -23.4739 -44.0050 -91.9893 -0.0001 -15.7696 -0.0000 38.9229 7.5720 -22.4185 8.1435 -4.4918 -13.2815 -13.9151 38.8134 88.7209 -0.0001 16.4534 0.0000 59.2585 -13.6144 20.9586
 -13.4839 37.5680 -22.1423 18.1635 0.4255 -0.2663 -19.4760 5.2115 2.8073 14.2523 0.0000 -0.0000 -13.3941 -6.8629 3.1737 -1.7904 0.0000 -0.0000 -20.9591 -7.6627 -5.3627 14.5364 -0.0000 0.0000 -15.0746 2.5326 8.4427 1.0626 0.0000 -0.0000 -15.2124 -2.7778 -6.0554 -3.1061 1.7011 5.9443 3.7001 -0.1953 -1.5535 -18.6736 0.1835 7.8649 11.8538 7.8821 10.0605 -23.5285 -43.9858 -92.0082 -0.0001 -15.7653 -0.0000 38.9290 7.5711 -22.4134 8.1459 -4.4643 -13.2840 -13.9025 38.8064 88.7075 -0.0001 16.4803 0.0000 58.2191 -13.9335 20.7224
 -13.4870 37.5678 -22.1411 18.1651 0.4303 -0.2719 -19.4826 5.2160 2.8168 14.2638 -0.0000 0.0000 -13.3968 -6.8700 3.1604 -1.7909 0.0000 0.0000 -20.9576 -7.6622 -5.3541 14.5415 -0.0000 -0.0000 -15.0784 2.5277 8.4275 1.0555 0.0000 0.0000 -15.2107 -2.7784 -6.0429 -3.1046 1.7102 5.9254 3.7037 -0.2124 -1.5354 -18.6846 0.1699 7.8547 11.8361 7.8762 10.0644 -23.5159 -44.0127 -91.9967 -0.0001 -15.7675 -0.0000 39.0634 7.5359 -22.4445 8.1387 -4.4851 -13.2866 -13.9132 38.8118 88.7363 -0.0001 16.4406 0.0000 60.4864 -13.0366 21.1674
 -13.4898 37.5674 -22.1392 18.1672 0.4358 -0.2772 -19.4854 5.2087 2.8262 14.2654 -0.0000 0.0000 -13.4027 -6.8699 3.1493 -1.7895 -0.0000 0.0000 -20.9556 -7.6577 -5.3452 14.5421 0.0000 0.0000 -15.0796 2.5217 8.4204 1.0296 0.0000 -0.0000 -15.2031 -2.7828 -6.0440 -3.1105 1.7111 5.9263 3.7021 -0.2143 -1.5255 -18.6917 0.1707 7.8447 11.8050 7.8731 10.0603 -23.4863 -44.0257 -92.0027 -0.0001 -15.7384 -0.0000 40.0753 7.1376 -22.6249 8.1351 -4.4939 -13.2877 -13.9141 38.8179 88.7283 -0.0001 16.4765 0.0000 59.0536 -13.7370 20.9151
 -13.4932 37.5661 -22.1370 18.1665 0.4437 -0.2843 -19.4878 5.1997 2.8363 14.2752 -0.0000 -0.0000 -13.4096 -6.8669 3.1481 -1.7772 -0.0000 -0.0000 -20.9533 -7.6667 -5.3359 14.5509 0.0000 -0.0000 -15.0932 2.5137 8.4240 1.0411 0.0000 -0.0000 -15.2083 -2.7912 -6.0447 -3.1083 1.7145 5.9284 3.7065 -0.2205 -1.5153 -18.6759 0.1661 7.8322 11.8521 7.8512 10.0661 -23.5194 -44.0092 -92.0030 -0.0001 -15.7442 -0.0000 40.3170 7.0259 -22.6778 8.1395 -4.4789 -13.2930 -13.9122 38.8067 88.7355 -0.0001 16.4701 0.0000 59.2260 -13.6880 20.9154
 -13.4966 37.5663 -22.1355 18.1685 0.4516 -0.2887 -19.4922 5.1920 2.8427 14.2795 -0.0000 -0.0000 -13.4044 -6.8722 3.1417 -1.8006 -0.0000 0.0000 -20.9545 -7.6749 -5.3319 14.5567 0.0000 -0.0000 -15.1015 2.5208 8.4254 1.0672 0.0000 0.0000 -15.2041 -2.7938 -6.0447 -3.1142 1.7113 5.9277 3.7050 -0.2136 -1.5388 -18.6619 0.1368 7.8693 11.8593 7.8503 10.0679 -23.5220 -44.0232 -91.9949 -0.0001 -15.7635 -0.0000 40.2492 7.0463 -22.6793 8.1462 -4.4768 -13.2908 -13.9150 38.7804 88.7340 -0.0001 16.4792 0.0000 59.0809 -13.7748 20.8863
 -13.4990 37.5673 -22.1340 18.1689 0.4572 -0.2845 -19.4917 5.1892 2.8411 14.2831 0.0000 -0.0000 -13.4052 -6.8729 3.1419 -1.7922 0.0000 0.0000 -20.9552 -7.6743 -5.3346 14.5635 -0.0000 0.0000 -15.1032 2.5205 8.4329 1.0662 0.0000 -0.0000 -15.2092 -2.7890 -6.0387 -3.0987 1.7125 5.9067 3.7004 -0.2169 -1.5350 -18.6610 0.1342 7.8846 11.8496 7.8573 10.0809 -23.5454 -44.0350 -92.0054 -0.0001 -15.7469 -0.0000 40.2030 7.0592 -22.6802 8.1327 -4.4870 -13.2738 -13.9073 38.8065 88.7241 -0.0001 16.4864 0.0000 59.0648 -13.7592 20.8872
 -13.5019 37.5680 -22.1331 18.1719 0.4603 -0.2882 -19.4992 5.1918 2.8496 14.2921 -0.0000 0.0000 -13.4035 -6.8749 3.1430 -1.8070 0.0000 0.0000 -20.9548 -7.6689 -5.3274 14.5653 -0.0000 0.0000 -15.1051 2.5225 8.4096 1.0630 -0.0000 0.0000 -15.2065 -2.7879 -6.0418 -3.1052 1.7112 5.9090 3.7097 -0.2291 -1.5231 -18.6612 0.1490 7.8759 11.8765 7.8495 10.0920 -23.5669 -44.0264 -92.0072 -0.0001 -15.7538 -0.0000 40.2641 7.0237 -22.6713 8.1381 -4.4753 -13.2760 -13.9016 38.7807 88.7206 -0.0001 16.5155 0.0000 58.5082 -13.9624 20.8047
 -13.5049 37.5676 -22.1318 18.1742 0.4599 -0.2946 -19.5047 5.1880 2.8599 14.3009 -0.0000 -0.0000 -13.4068 -6.8695 3.1385 -1.8073 -0.0000 0.0000 -20.9557 -7.6753 -5.3184 14.5697 0.0000 0.0000 -15.0997 2.5243 8.4274 1.0585 -0.0000 -0.0000 -15.2057 -2.7773 -6.0373 -3.1036 1.6992 5.9096 3.7135 -0.2241 -1.5163 -18.6529 0.1312 7.8571 11.8777 7.8423 10.0949 -23.5582 -44.0416 -91.9976 -0.0001 -15.7697 -0.0000 40.3597 6.9644 -22.6328 8.1354 -4.4754 -13.2804 -13.9031 38.7920 88.7284 -0.0001 16.5066 0.0000 58.8132 -13.8505 20.8597
